solid Untitled-539fe9a9
facet normal -0.25881753879319186 0.9243487642183736 -0.28034415225040893
  outer loop
    vertex 12.398779999999999 48.438309999999994 28.57143
    vertex 25.0 43.301269999999995 0.0
    vertex -35.74942 34.95682 28.57143
  endloop
endfacet
facet normal -0.0 0.9598995503970118 0.2803441690986537
  outer loop
    vertex -35.74942 34.95682 28.57143
    vertex 25.0 43.301269999999995 0.0
    vertex -25.0 43.301269999999995 0.0
  endloop
endfacet
facet normal -0.4984640995140057 0.8203296518460504 -0.28034408108221043
  outer loop
    vertex -1.120834 49.98743 57.14286
    vertex 12.398779999999999 48.438309999999994 28.57143
    vertex -43.85081 24.023039999999998 57.14286
  endloop
endfacet
facet normal -0.25881751114100515 0.9243486654605199 0.2803445034027449
  outer loop
    vertex -43.85081 24.023039999999998 57.14286
    vertex 12.398779999999999 48.438309999999994 28.57143
    vertex -35.74942 34.95682 28.57143
  endloop
endfacet
facet normal -0.7011883966130845 0.6555469124519064 -0.2803445701809544
  outer loop
    vertex -1.120834 49.98743 57.14286
    vertex -48.70407999999999 11.30984 85.71429
    vertex -14.55743 47.8339 85.71429
  endloop
endfacet
facet normal -0.498464085912044 0.8203296294611029 0.28034417076886037
  outer loop
    vertex -48.70407999999999 11.30984 85.71429
    vertex -1.120834 49.98743 57.14286
    vertex -43.85081 24.023039999999998 57.14286
  endloop
endfacet
facet normal 0.2588177117694474 -0.9243486963481586 -0.2803442163375001
  outer loop
    vertex -12.398779999999999 -48.438309999999994 28.57143
    vertex -25.0 -43.301269999999995 0.0
    vertex 35.74942 -34.95681 28.57143
  endloop
endfacet
facet normal 0.0 -0.9598994599880827 0.28034447865900164
  outer loop
    vertex 35.74942 -34.95681 28.57143
    vertex -25.0 -43.301269999999995 0.0
    vertex 25.0 -43.301269999999995 0.0
  endloop
endfacet
facet normal 0.4984641794701022 -0.8203295914510359 -0.28034411564178413
  outer loop
    vertex 1.120834 -49.98743 57.14286
    vertex -12.398779999999999 -48.438309999999994 28.57143
    vertex 43.8508 -24.023039999999998 57.14286
  endloop
endfacet
facet normal 0.2588177111119522 -0.9243486939999623 0.2803442246869625
  outer loop
    vertex 43.8508 -24.023039999999998 57.14286
    vertex -12.398779999999999 -48.438309999999994 28.57143
    vertex 35.74942 -34.95681 28.57143
  endloop
endfacet
facet normal 0.7011883563140106 -0.6555470667558145 -0.28034431015717737
  outer loop
    vertex 48.704089999999994 -11.309829999999998 85.71429
    vertex 14.55743 -47.83389 85.71429
    vertex 1.120834 -49.98743 57.14286
  endloop
endfacet
facet normal 0.4984641849881738 -0.8203296005322049 0.2803440792575234
  outer loop
    vertex 48.704089999999994 -11.309829999999998 85.71429
    vertex 1.120834 -49.98743 57.14286
    vertex 43.8508 -24.023039999999998 57.14286
  endloop
endfacet
facet normal 0.8519742428862476 -0.4422066770728982 -0.2803446882153302
  outer loop
    vertex 49.94975 2.241116 114.28569999999999
    vertex 26.915739999999996 -42.13719 114.28569999999999
    vertex 14.55743 -47.83389 85.71429
  endloop
endfacet
facet normal 0.7011882986073359 -0.6555470128053447 0.28034458064699397
  outer loop
    vertex 49.94975 2.241116 114.28569999999999
    vertex 14.55743 -47.83389 85.71429
    vertex 48.704089999999994 -11.309829999999998 85.71429
  endloop
endfacet
facet normal -0.6711006738309951 -0.6863170005471683 -0.2803441819327142
  outer loop
    vertex -48.1482 -13.481489999999999 28.57143
    vertex -50.0 3.814697e-06 0.0
    vertex -12.398779999999999 -48.438309999999994 28.57143
  endloop
endfacet
facet normal -0.8312973580957224 -0.47994971328855546 0.28034438666987055
  outer loop
    vertex -50.0 3.814697e-06 0.0
    vertex -25.0 -43.301269999999995 0.0
    vertex -12.398779999999999 -48.438309999999994 28.57143
  endloop
endfacet
facet normal -0.46119412161089535 -0.8418473695548745 -0.28034441061860543
  outer loop
    vertex -42.72997 -25.96439 57.14286
    vertex -48.1482 -13.481489999999999 28.57143
    vertex 1.120834 -49.98743 57.14286
  endloop
endfacet
facet normal -0.671100670515845 -0.6863169971568516 0.28034419816858225
  outer loop
    vertex 1.120834 -49.98743 57.14286
    vertex -48.1482 -13.481489999999999 28.57143
    vertex -12.398779999999999 -48.438309999999994 28.57143
  endloop
endfacet
facet normal -0.2171262090173556 -0.9350205002084925 -0.2803442054824962
  outer loop
    vertex -34.146649999999994 -36.524049999999995 85.71429
    vertex -42.72997 -25.96439 57.14286
    vertex 14.55743 -47.83389 85.71429
  endloop
endfacet
facet normal -0.46119416518909473 -0.841847449100972 0.2803441000586964
  outer loop
    vertex 14.55743 -47.83389 85.71429
    vertex -42.72997 -25.96439 57.14286
    vertex 1.120834 -49.98743 57.14286
  endloop
endfacet
facet normal 0.04302499337302273 -0.9589346678152637 -0.2803447035477598
  outer loop
    vertex -23.03401 -44.37830999999999 114.28569999999999
    vertex -34.146649999999994 -36.524049999999995 85.71429
    vertex 26.915739999999996 -42.13719 114.28569999999999
  endloop
endfacet
facet normal -0.21712617695882683 -0.9350203621533875 0.2803446907608424
  outer loop
    vertex 26.915739999999996 -42.13719 114.28569999999999
    vertex -34.146649999999994 -36.524049999999995 85.71429
    vertex 14.55743 -47.83389 85.71429
  endloop
endfacet
facet normal -0.9299182558274335 0.23803172018811686 -0.28034431983393204
  outer loop
    vertex -25.0 43.301269999999995 0.0
    vertex -41.948809999999995 10.73767 28.57143
    vertex -35.74942 34.95682 28.57143
  endloop
endfacet
facet normal -0.8646643463078911 0.49921431056965265 0.05604141634910455
  outer loop
    vertex -25.0 43.301269999999995 0.0
    vertex -37.5 21.650639999999996 0.0
    vertex -41.948809999999995 10.73767 28.57143
  endloop
endfacet
facet normal -0.9596582967975384 -0.021517883039882398 -0.280344313473859
  outer loop
    vertex -35.74942 34.95682 28.57143
    vertex -43.29039 -0.9706687999999999 57.14286
    vertex -43.85081 24.023039999999998 57.14286
  endloop
endfacet
facet normal -0.9672437878532268 0.24758595846590054 0.056041484900593186
  outer loop
    vertex -35.74942 34.95682 28.57143
    vertex -41.948809999999995 10.73767 28.57143
    vertex -43.29039 -0.9706687999999999 57.14286
  endloop
endfacet
facet normal -0.9183147509480067 -0.27947320878593496 -0.2803439740072784
  outer loop
    vertex -43.85081 24.023039999999998 57.14286
    vertex -41.425369999999994 -12.607109999999999 85.71429
    vertex -48.70407999999999 11.30984 85.71429
  endloop
endfacet
facet normal -0.9981775599199587 -0.02238157900480718 0.05604126866416317
  outer loop
    vertex -43.85081 24.023039999999998 57.14286
    vertex -43.29039 -0.9706687999999999 57.14286
    vertex -41.425369999999994 -12.607109999999999 85.71429
  endloop
endfacet
facet normal -0.9672438095807022 0.2475858618001828 -0.05604153695671453
  outer loop
    vertex -37.5 21.650639999999996 0.0
    vertex -48.1482 -13.481489999999999 28.57143
    vertex -41.948809999999995 10.73767 28.57143
  endloop
endfacet
facet normal -0.8312973864984518 0.4799497456931298 0.2803442469713683
  outer loop
    vertex -37.5 21.650639999999996 0.0
    vertex -50.0 3.814697e-06 0.0
    vertex -48.1482 -13.481489999999999 28.57143
  endloop
endfacet
facet normal -0.9981775467645345 -0.02238156760577862 -0.05604150753364215
  outer loop
    vertex -41.948809999999995 10.73767 28.57143
    vertex -42.72997 -25.96439 57.14286
    vertex -43.29039 -0.9706687999999999 57.14286
  endloop
endfacet
facet normal -0.9299182975252182 0.23803163257911775 0.28034425590605494
  outer loop
    vertex -41.948809999999995 10.73767 28.57143
    vertex -48.1482 -13.481489999999999 28.57143
    vertex -42.72997 -25.96439 57.14286
  endloop
endfacet
facet normal -0.9551742757219894 -0.2906912884417136 -0.056041750713814835
  outer loop
    vertex -43.29039 -0.9706687999999999 57.14286
    vertex -34.146649999999994 -36.524049999999995 85.71429
    vertex -41.425369999999994 -12.607109999999999 85.71429
  endloop
endfacet
facet normal -0.9596583449685364 -0.021517873444442066 0.28034414931415763
  outer loop
    vertex -43.29039 -0.9706687999999999 57.14286
    vertex -42.72997 -25.96439 57.14286
    vertex -34.146649999999994 -36.524049999999995 85.71429
  endloop
endfacet
facet normal -0.9183144473132578 -0.27947361719132785 0.2803445614770167
  outer loop
    vertex -41.425369999999994 -12.607109999999999 85.71429
    vertex -34.146649999999994 -36.524049999999995 85.71429
    vertex -23.03401 -44.37830999999999 114.28569999999999
  endloop
endfacet
facet normal 0.9299182775464093 -0.23803172574753573 -0.2803442430704954
  outer loop
    vertex 41.948809999999995 -10.737659999999998 28.57143
    vertex 35.74942 -34.95681 28.57143
    vertex 25.0 -43.301269999999995 0.0
  endloop
endfacet
facet normal 0.8646644501047664 -0.49921413991963204 0.056041335006619106
  outer loop
    vertex 41.948809999999995 -10.737659999999998 28.57143
    vertex 25.0 -43.301269999999995 0.0
    vertex 37.5 -21.650629999999996 0.0
  endloop
endfacet
facet normal 0.9596584374549813 0.021517495690802763 -0.2803438617138962
  outer loop
    vertex 43.29039 0.9706764 57.14286
    vertex 43.8508 -24.023039999999998 57.14286
    vertex 35.74942 -34.95681 28.57143
  endloop
endfacet
facet normal 0.967243788980556 -0.24758595875446368 0.056041464168690436
  outer loop
    vertex 43.29039 0.9706764 57.14286
    vertex 35.74942 -34.95681 28.57143
    vertex 41.948809999999995 -10.737659999999998 28.57143
  endloop
endfacet
facet normal 0.9183143743755509 0.2794735949939587 -0.28034482252467796
  outer loop
    vertex 41.425369999999994 12.607109999999999 85.71429
    vertex 48.704089999999994 -11.309829999999998 85.71429
    vertex 43.8508 -24.023039999999998 57.14286
  endloop
endfacet
facet normal 0.9981775594073665 0.022381172816199533 0.05604144001473148
  outer loop
    vertex 41.425369999999994 12.607109999999999 85.71429
    vertex 43.8508 -24.023039999999998 57.14286
    vertex 43.29039 0.9706764 57.14286
  endloop
endfacet
facet normal 0.9551742788749785 0.29069128940127315 0.056041691997029464
  outer loop
    vertex 36.49188 23.309709999999995 114.28569999999999
    vertex 48.704089999999994 -11.309829999999998 85.71429
    vertex 41.425369999999994 12.607109999999999 85.71429
  endloop
endfacet
facet normal 0.9672438969517951 -0.24758548479323902 -0.05604169456040673
  outer loop
    vertex 48.14819 13.4815 28.57143
    vertex 41.948809999999995 -10.737659999999998 28.57143
    vertex 37.5 -21.650629999999996 0.0
  endloop
endfacet
facet normal 0.8312972826654035 -0.47994973829651694 0.2803445675275716
  outer loop
    vertex 48.14819 13.4815 28.57143
    vertex 37.5 -21.650629999999996 0.0
    vertex 50.0 3.814697e-06 0.0
  endloop
endfacet
facet normal 0.998177546561648 0.022381574406937284 -0.05604150843112272
  outer loop
    vertex 42.72997 25.96439 57.14286
    vertex 43.29039 0.9706764 57.14286
    vertex 41.948809999999995 -10.737659999999998 28.57143
  endloop
endfacet
facet normal 0.9299185328156342 -0.23803130884665652 0.2803437503044533
  outer loop
    vertex 42.72997 25.96439 57.14286
    vertex 41.948809999999995 -10.737659999999998 28.57143
    vertex 48.14819 13.4815 28.57143
  endloop
endfacet
facet normal 0.9551742798611059 0.2906912897013844 -0.056041673632784915
  outer loop
    vertex 34.146649999999994 36.524049999999995 85.71429
    vertex 41.425369999999994 12.607109999999999 85.71429
    vertex 43.29039 0.9706764 57.14286
  endloop
endfacet
facet normal 0.9596583454840143 0.02151787999907916 0.2803441470464998
  outer loop
    vertex 34.146649999999994 36.524049999999995 85.71429
    vertex 43.29039 0.9706764 57.14286
    vertex 42.72997 25.96439 57.14286
  endloop
endfacet
facet normal 0.9183144473132578 0.27947361719132785 0.2803445614770167
  outer loop
    vertex 23.03401 44.37830999999999 114.28569999999999
    vertex 41.425369999999994 12.607109999999999 85.71429
    vertex 34.146649999999994 36.524049999999995 85.71429
  endloop
endfacet
facet normal 0.6711007049172848 0.6863170366911922 -0.28034401903187506
  outer loop
    vertex 48.14819 13.4815 28.57143
    vertex 50.0 3.814697e-06 0.0
    vertex 12.398779999999999 48.438309999999994 28.57143
  endloop
endfacet
facet normal 0.8312973278996766 0.47994978041879394 0.28034436128235096
  outer loop
    vertex 12.398779999999999 48.438309999999994 28.57143
    vertex 50.0 3.814697e-06 0.0
    vertex 25.0 43.301269999999995 0.0
  endloop
endfacet
facet normal 0.46119413883644744 0.8418474009977854 -0.2803442878608046
  outer loop
    vertex 42.72997 25.96439 57.14286
    vertex 48.14819 13.4815 28.57143
    vertex -1.120834 49.98743 57.14286
  endloop
endfacet
facet normal 0.6711006685553584 0.6863169995048067 0.2803441971136022
  outer loop
    vertex -1.120834 49.98743 57.14286
    vertex 48.14819 13.4815 28.57143
    vertex 12.398779999999999 48.438309999999994 28.57143
  endloop
endfacet
facet normal 0.21712639545721096 0.9350204763511136 -0.2803441406555433
  outer loop
    vertex 34.146649999999994 36.524049999999995 85.71429
    vertex 42.72997 25.96439 57.14286
    vertex -14.55743 47.8339 85.71429
  endloop
endfacet
facet normal 0.46119420328483995 0.8418475186395923 0.2803438285691752
  outer loop
    vertex -14.55743 47.8339 85.71429
    vertex 42.72997 25.96439 57.14286
    vertex -1.120834 49.98743 57.14286
  endloop
endfacet
facet normal 0.0 0.0 -1.0
  outer loop
    vertex 50.0 3.814697e-06 0.0
    vertex -25.0 43.301269999999995 0.0
    vertex 25.0 43.301269999999995 0.0
  endloop
endfacet
facet normal 0.0 0.0 -1.0
  outer loop
    vertex 50.0 3.814697e-06 0.0
    vertex 37.5 -21.650629999999996 0.0
    vertex -25.0 43.301269999999995 0.0
  endloop
endfacet
facet normal 0.0 0.0 -1.0
  outer loop
    vertex 37.5 -21.650629999999996 0.0
    vertex 25.0 -43.301269999999995 0.0
    vertex -25.0 43.301269999999995 0.0
  endloop
endfacet
facet normal 0.0 0.0 -1.0
  outer loop
    vertex 25.0 -43.301269999999995 0.0
    vertex -25.0 -43.301269999999995 0.0
    vertex -25.0 43.301269999999995 0.0
  endloop
endfacet
facet normal 0.0 0.0 -1.0
  outer loop
    vertex -25.0 -43.301269999999995 0.0
    vertex -37.5 21.650639999999996 0.0
    vertex -25.0 43.301269999999995 0.0
  endloop
endfacet
facet normal 0.0 0.0 -1.0
  outer loop
    vertex -25.0 -43.301269999999995 0.0
    vertex -50.0 3.814697e-06 0.0
    vertex -37.5 21.650639999999996 0.0
  endloop
endfacet
facet normal 0.8414194728329767 0.5374687393018397 -0.05604127952471046
  outer loop
    vertex 23.03401 44.37830999999999 114.28569999999999
    vertex 36.49188 23.309709999999995 114.28569999999999
    vertex 41.425369999999994 12.607109999999999 85.71429
  endloop
endfacet
facet normal 0.8089493836979168 0.5167281519776159 -0.28034427329367423
  outer loop
    vertex 36.49188 23.309709999999995 114.28569999999999
    vertex 49.94975 2.241116 114.28569999999999
    vertex 48.704089999999994 -11.309829999999998 85.71429
  endloop
endfacet
facet normal -0.8089492855047608 -0.5167281383072941 -0.2803445818324567
  outer loop
    vertex -48.70407999999999 11.30984 85.71429
    vertex -36.49188 -23.3097 114.28569999999999
    vertex -49.94975 -2.241108 114.28569999999999
  endloop
endfacet
facet normal -0.9551744076206389 -0.2906908076695573 0.05604199642216514
  outer loop
    vertex -48.70407999999999 11.30984 85.71429
    vertex -41.425369999999994 -12.607109999999999 85.71429
    vertex -36.49188 -23.3097 114.28569999999999
  endloop
endfacet
facet normal -0.8414196015767612 -0.5374685664347033 -0.05604100442559395
  outer loop
    vertex -41.425369999999994 -12.607109999999999 85.71429
    vertex -23.03401 -44.37830999999999 114.28569999999999
    vertex -36.49188 -23.3097 114.28569999999999
  endloop
endfacet
facet normal -0.7011884439738444 0.6555469567298781 0.2803443481858238
  outer loop
    vertex -14.55743 47.8339 85.71429
    vertex -48.70407999999999 11.30984 85.71429
    vertex -49.94975 -2.241108 114.28569999999999
  endloop
endfacet
facet normal -0.8519742574815936 0.4422068566993626 -0.28034436052247763
  outer loop
    vertex -14.55743 47.8339 85.71429
    vertex -49.94975 -2.241108 114.28569999999999
    vertex -26.915729999999996 42.1372 114.28569999999999
  endloop
endfacet
facet normal -0.04302481120643767 0.9589346945534363 -0.2803446400457094
  outer loop
    vertex 23.03401 44.37830999999999 114.28569999999999
    vertex 34.146649999999994 36.524049999999995 85.71429
    vertex -26.915729999999996 42.1372 114.28569999999999
  endloop
endfacet
facet normal 0.21712635945921693 0.9350203213314465 0.2803446855662248
  outer loop
    vertex -26.915729999999996 42.1372 114.28569999999999
    vertex 34.146649999999994 36.524049999999995 85.71429
    vertex -14.55743 47.8339 85.71429
  endloop
endfacet
endsolid Untitled-539fe9a9
